<?xml version="1.0" encoding="utf-8"?>
<!-- Generator: Adobe Illustrator 24.3.0, SVG Export Plug-In . SVG Version: 6.00 Build 0)  -->
<svg version="1.1" id="Layer_1" xmlns="http://www.w3.org/2000/svg" xmlns:xlink="http://www.w3.org/1999/xlink" x="0px" y="0px"
	 viewBox="0 0 40 40" style="enable-background:new 0 0 40 40;" xml:space="preserve">
<style type="text/css">
	.st0{fill:#FFFFFF;}
	.st1{fill:#051C2C;}
</style>
<rect y="0" class="st0" width="40" height="40"/>
<path class="st1" d="M34.6,38.5h-29V16L20.1,1.5L34.6,16C34.6,16,34.6,38.5,34.6,38.5z M6.4,37.6h27.2V16.3L20.1,2.8L6.4,16.3V37.6z
	"/>
<path class="st1" d="M20.1,34.7h-0.2c-5.7-0.2-10.2-4.8-10.2-10.5V24c0-3.2,1.2-6.2,3.5-8.5l6.9-6.9l7,7c2.2,2.2,3.4,5.2,3.4,8.4
	c0,2.9-1.2,5.7-3.3,7.7C25.4,33.6,22.7,34.7,20.1,34.7z M20.1,10l-6.3,6.3c-2,2-3.3,4.8-3.3,7.8v0.2c0,5.2,4.2,9.5,9.5,9.5
	c2.5,0,4.9-0.9,6.7-2.7c1.9-1.9,2.9-4.4,2.9-7c0-2.9-1.1-5.7-3.3-7.8L20.1,10z"/>
<rect x="19.6" y="9.3" class="st1" width="0.9" height="25"/>
<polygon class="st1" points="20.1,29.5 10.6,20 11.2,19.4 20.1,28.2 28.8,19.4 29.4,20 "/>
<polygon class="st1" points="20.1,21.3 14.1,15.3 14.8,14.7 20.1,20 25.4,14.7 26,15.3 "/>
</svg>
