<svg id="Layer_1" data-name="Layer 1" xmlns="http://www.w3.org/2000/svg" viewBox="0 0 31.53 40.26"><defs><style>.cls-1{fill:#010102;}</style></defs><path class="cls-1" d="M31.38,40.07H.15V15.81L15.77.19,31.38,15.81Zm-30.24-1H30.39V16.22L15.77,1.59,1.14,16.22Z"/><path class="cls-1" d="M15.76,36h-.21a11.32,11.32,0,0,1-11-11.26v-.22a12.73,12.73,0,0,1,3.75-9.06L15.77,8l7.51,7.51A12.73,12.73,0,0,1,27,24.52a11.64,11.64,0,0,1-3.47,8.26A11.11,11.11,0,0,1,15.76,36Zm0-26.65L9,16.16a11.75,11.75,0,0,0-3.46,8.36v.22a10.2,10.2,0,0,0,17.37,7.33A10.64,10.64,0,0,0,26,24.52a11.75,11.75,0,0,0-3.46-8.36Z"/><rect class="cls-1" x="15.27" y="8.65" width="0.99" height="26.86"/><polygon class="cls-1" points="15.77 30.39 5.59 20.21 6.29 19.52 15.77 28.99 25.24 19.52 25.94 20.21 15.77 30.39"/><polygon class="cls-1" points="15.77 21.48 9.35 15.06 10.05 14.37 15.77 20.08 21.49 14.37 22.19 15.06 15.77 21.48"/></svg>