<svg id="Layer_1" data-name="Layer 1" xmlns="http://www.w3.org/2000/svg" viewBox="0 0 109.24 40.38"><defs><style>.cls-1{fill:#010102;}</style></defs><path class="cls-1" d="M43.67,3.67a1.48,1.48,0,1,1-3,0,1.48,1.48,0,1,1,3,0ZM43.45,7V18.74H40.94V7Z"/><path class="cls-1" d="M57.44,11.44v7.3H54.91V12.15a2.61,2.61,0,0,0-2.83-2.84,3.27,3.27,0,0,0-3.32,3.19v6.24H46.22V7h2.54V9.26a4.42,4.42,0,0,1,4.32-2.33C55.81,6.93,57.44,8.65,57.44,11.44Z"/><path class="cls-1" d="M71.38,2.39V18.74H68.85v-2a4.54,4.54,0,0,1-4.12,2.12c-3.37,0-5.62-2.45-5.62-6s2.27-5.92,5.57-5.92A4.65,4.65,0,0,1,68.85,9V2.39ZM68.85,12.92a3.57,3.57,0,0,0-3.59-3.85,3.61,3.61,0,0,0-3.62,3.85,3.61,3.61,0,1,0,7.21,0Z"/><path class="cls-1" d="M85.48,12.85a6.12,6.12,0,0,1-12.23,0c0-3.52,2.49-5.92,6.13-5.92A5.72,5.72,0,0,1,85.48,12.85Zm-9.7.05a3.59,3.59,0,1,0,7.17,0,3.59,3.59,0,1,0-7.17,0Z"/><path class="cls-1" d="M98.67,12.85a6.11,6.11,0,0,1-12.22,0c0-3.52,2.48-5.92,6.12-5.92A5.72,5.72,0,0,1,98.67,12.85ZM89,12.9a3.59,3.59,0,1,0,7.16,0,3.59,3.59,0,1,0-7.16,0Z"/><path class="cls-1" d="M107,6.93V9.35a3.54,3.54,0,0,0-4,3.26v6.13h-2.54V7H103V9.35A4.26,4.26,0,0,1,107,6.93Z"/><path class="cls-1" d="M43,27.4v1.39h3.06v1.9H43v9.38H40.52V27.65a3.84,3.84,0,0,1,4-4,4.5,4.5,0,0,1,2.65.82l-1,1.94a2.87,2.87,0,0,0-1.61-.55A1.47,1.47,0,0,0,43,27.4Z"/><path class="cls-1" d="M54.27,28.26v2.43A3.55,3.55,0,0,0,50.21,34v6.12H47.68V28.35h2.53v2.34A4.28,4.28,0,0,1,54.27,28.26Z"/><path class="cls-1" d="M58.34,25a1.48,1.48,0,1,1-1.48-1.52A1.46,1.46,0,0,1,58.34,25Zm-.22,3.35V40.07H55.61V28.35Z"/><path class="cls-1" d="M69.49,36.42,71,37.78a6.27,6.27,0,0,1-5.06,2.38,5.73,5.73,0,0,1-6.11-5.95,5.64,5.64,0,0,1,5.89-5.95,5.12,5.12,0,0,1,5.53,5.12l-8.53,2.55a3.49,3.49,0,0,0,3.37,2.2A4.46,4.46,0,0,0,69.49,36.42Zm-7.16-2.34v0l6.43-1.91a2.86,2.86,0,0,0-2.93-1.88C63.69,30.31,62.33,31.63,62.33,34.08Z"/><path class="cls-1" d="M84,32.78v7.29H81.47V33.49a2.61,2.61,0,0,0-2.82-2.85,3.29,3.29,0,0,0-3.33,3.2v6.23H72.79V28.35h2.53V30.6a4.44,4.44,0,0,1,4.32-2.34C82.37,28.26,84,30,84,32.78Z"/><path class="cls-1" d="M98,23.72V40.07H95.41v-2a4.54,4.54,0,0,1-4.12,2.11c-3.37,0-5.62-2.44-5.62-6s2.27-5.93,5.58-5.93a4.63,4.63,0,0,1,4.16,2.14V23.72ZM95.41,34.26a3.57,3.57,0,0,0-3.59-3.86,3.61,3.61,0,0,0-3.61,3.86,3.61,3.61,0,1,0,7.2,0Z"/><path class="cls-1" d="M104.22,30.27c-1,0-1.72.33-1.72,1.17,0,2.16,6.24,1,6.22,5.24,0,2.4-2.14,3.48-4.5,3.48a7.22,7.22,0,0,1-4.71-1.63l.9-1.81a6.34,6.34,0,0,0,3.92,1.46c1.08,0,1.92-.38,1.92-1.26,0-2.4-6.17-1.05-6.15-5.29,0-2.38,2.07-3.39,4.32-3.39a7.4,7.4,0,0,1,4.1,1.19l-.93,1.87A6.84,6.84,0,0,0,104.22,30.27Z"/><path class="cls-1" d="M31.75,40.07H.52V15.81L16.14.19,31.75,15.81Zm-30.24-1H30.76V16.22L16.14,1.59,1.51,16.22Z"/><path class="cls-1" d="M16.13,36h-.21a11.32,11.32,0,0,1-11-11.26v-.22a12.7,12.7,0,0,1,3.76-9.06L16.14,8l7.51,7.51a12.74,12.74,0,0,1,3.76,9.06,11.65,11.65,0,0,1-3.48,8.26A11.11,11.11,0,0,1,16.13,36Zm0-26.65L9.33,16.16a11.71,11.71,0,0,0-3.47,8.36v.22a10.2,10.2,0,0,0,17.37,7.33,10.6,10.6,0,0,0,3.19-7.55A11.71,11.71,0,0,0,23,16.16Z"/><rect class="cls-1" x="15.64" y="8.65" width="0.99" height="26.86"/><polygon class="cls-1" points="16.14 30.39 5.96 20.22 6.66 19.52 16.14 28.99 25.61 19.52 26.32 20.22 16.14 30.39"/><polygon class="cls-1" points="16.14 21.49 9.72 15.07 10.42 14.37 16.14 20.09 21.86 14.37 22.56 15.07 16.14 21.49"/></svg>