<svg id="Layer_1" data-name="Layer 1" xmlns="http://www.w3.org/2000/svg" viewBox="0 0 68.86 38.4"><defs><style>.cls-1{fill:#010102;}</style></defs><path class="cls-1" d="M3.48,1.7A1.46,1.46,0,0,1,2,3.2,1.45,1.45,0,0,1,.53,1.7,1.46,1.46,0,0,1,2,.18,1.46,1.46,0,0,1,3.48,1.7ZM3.26,5.05V16.78H.75V5.05Z"/><path class="cls-1" d="M17.25,9.48v7.3H14.72V10.19A2.61,2.61,0,0,0,11.9,7.34a3.29,3.29,0,0,0-3.33,3.2v6.24H6V5.05H8.57V7.3A4.43,4.43,0,0,1,12.89,5C15.62,5,17.25,6.68,17.25,9.48Z"/><path class="cls-1" d="M31.19.43V16.78H28.66v-2a4.54,4.54,0,0,1-4.12,2.12c-3.37,0-5.62-2.45-5.62-6s2.27-5.93,5.57-5.93a4.63,4.63,0,0,1,4.17,2.14V.43ZM28.66,11A3.57,3.57,0,0,0,25.07,7.1,3.62,3.62,0,0,0,21.45,11a3.61,3.61,0,1,0,7.21,0Z"/><path class="cls-1" d="M45.29,10.89a5.75,5.75,0,0,1-6.1,6,5.75,5.75,0,0,1-6.13-6C33.06,7.37,35.55,5,39.19,5A5.73,5.73,0,0,1,45.29,10.89Zm-9.7,0a3.59,3.59,0,1,0,7.17,0,3.59,3.59,0,1,0-7.17,0Z"/><path class="cls-1" d="M58.48,10.89a5.75,5.75,0,0,1-6.1,6,5.75,5.75,0,0,1-6.12-6A5.73,5.73,0,0,1,52.38,5,5.73,5.73,0,0,1,58.48,10.89Zm-9.69,0a3.59,3.59,0,1,0,7.16,0,3.59,3.59,0,1,0-7.16,0Z"/><path class="cls-1" d="M66.83,5V7.39a3.54,3.54,0,0,0-4,3.26v6.13H60.24V5.05h2.54V7.39A4.25,4.25,0,0,1,66.83,5Z"/><path class="cls-1" d="M2.84,25.44v1.39H5.9v1.89H2.84v9.39H.33V25.68a3.84,3.84,0,0,1,4-4A4.5,4.5,0,0,1,7,22.47L6,24.4a2.87,2.87,0,0,0-1.61-.55A1.47,1.47,0,0,0,2.84,25.44Z"/><path class="cls-1" d="M14.08,26.3v2.42A3.56,3.56,0,0,0,10,32v6.12H7.49V26.39H10v2.33A4.28,4.28,0,0,1,14.08,26.3Z"/><path class="cls-1" d="M18.15,23a1.48,1.48,0,1,1-1.48-1.52A1.46,1.46,0,0,1,18.15,23Zm-.22,3.35V38.11H15.42V26.39Z"/><path class="cls-1" d="M29.3,34.45l1.47,1.37a6.27,6.27,0,0,1-5.06,2.38,5.73,5.73,0,0,1-6.11-6,5.64,5.64,0,0,1,5.89-5.95A5.12,5.12,0,0,1,31,31.41L22.49,34a3.5,3.5,0,0,0,3.37,2.2A4.44,4.44,0,0,0,29.3,34.45Zm-7.16-2.33v0l6.43-1.92a2.87,2.87,0,0,0-2.93-1.87C23.5,28.35,22.14,29.67,22.14,32.12Z"/><path class="cls-1" d="M43.81,30.82v7.29H41.28V31.52a2.61,2.61,0,0,0-2.82-2.84,3.29,3.29,0,0,0-3.33,3.19v6.24H32.6V26.39h2.53v2.25a4.42,4.42,0,0,1,4.32-2.34C42.18,26.3,43.81,28,43.81,30.82Z"/><path class="cls-1" d="M57.76,21.76V38.11H55.22v-2a4.54,4.54,0,0,1-4.12,2.11c-3.37,0-5.62-2.45-5.62-6s2.27-5.93,5.58-5.93a4.63,4.63,0,0,1,4.16,2.14V21.76ZM55.22,32.29a3.56,3.56,0,0,0-3.59-3.85A3.61,3.61,0,0,0,48,32.29a3.61,3.61,0,1,0,7.2,0Z"/><path class="cls-1" d="M64,28.3c-1,0-1.72.34-1.72,1.17,0,2.16,6.24,1,6.22,5.25,0,2.4-2.14,3.48-4.5,3.48a7.22,7.22,0,0,1-4.71-1.63l.9-1.81a6.4,6.4,0,0,0,3.92,1.46c1.08,0,1.92-.38,1.92-1.26,0-2.4-6.17-1.06-6.15-5.29,0-2.38,2.07-3.39,4.32-3.39a7.4,7.4,0,0,1,4.1,1.19l-.93,1.87A6.85,6.85,0,0,0,64,28.3Z"/></svg>