<?xml version="1.0" encoding="utf-8"?>
<!-- Generator: Adobe Illustrator 24.3.0, SVG Export Plug-In . SVG Version: 6.00 Build 0)  -->
<svg version="1.1" id="Layer_1" xmlns="http://www.w3.org/2000/svg" xmlns:xlink="http://www.w3.org/1999/xlink" x="0px" y="0px"
	 viewBox="0 0 243 243" style="enable-background:new 0 0 243 243;" xml:space="preserve">
<style type="text/css">
	.st0{fill:#FFFFFF;}
</style>
<circle cx="121.5" cy="121.5" r="121.5"/>
<path class="st0" d="M165.2,79.6c0.2,0.2,0.4,0.4,0.7,0.7C165.6,80,165.4,79.8,165.2,79.6c-8-5-13.7-13.2-15.4-22.8
	c-0.2-0.9-0.3-1.8-0.4-2.8v-3.1H125v96.5c0,11.3-9.2,20.4-20.4,20.4c-3.3,0-6.4-0.8-9.2-2.2c0,0,0,0,0,0
	c-6.7-3.4-11.2-10.3-11.2-18.3c0-11.3,9.2-20.4,20.4-20.4c2.2,0,4.2,0.3,6.2,1v-19.2c0,0,0,0,0,0v-5.5c-2-0.3-4.1-0.4-6.1-0.4
	c-24.7,0-44.7,20-44.7,44.7c0,15.5,7.9,29.1,19.8,37.1c0,0,0,0,0,0c7.1,4.8,15.7,7.6,24.9,7.6c24.7,0,44.7-20,44.7-44.7V98.1
	c9.5,6.8,21.1,10.8,33.7,10.8v-19v-5.1C176.7,84.7,170.5,83,165.2,79.6z M178.9,88.7c0.5,0.2,1.1,0.4,1.6,0.5
	C179.9,89.1,179.4,88.9,178.9,88.7z M170.9,84.6c0.1,0,0.1,0.1,0.2,0.1C171,84.7,170.9,84.6,170.9,84.6z M172.7,85.7
	c0.2,0.1,0.4,0.2,0.6,0.4C173,86,172.9,85.9,172.7,85.7z M174.6,86.8c0.3,0.2,0.6,0.4,1,0.5C175.2,87.2,174.9,87,174.6,86.8z"/>
</svg>
