<?xml version="1.0" encoding="utf-8"?>
<!-- Generator: Adobe Illustrator 24.3.0, SVG Export Plug-In . SVG Version: 6.00 Build 0)  -->
<svg version="1.1" id="Layer_1" xmlns="http://www.w3.org/2000/svg" xmlns:xlink="http://www.w3.org/1999/xlink" x="0px" y="0px"
	 viewBox="0 0 243 243" style="enable-background:new 0 0 243 243;" xml:space="preserve">
<style type="text/css">
	.st0{fill:#FFFFFF;}
</style>
<circle cx="121.5" cy="121.5" r="121.5"/>
<path class="st0" d="M195.4,84.3c-1.8-6.7-7-11.9-13.7-13.7c-12-3.3-60.3-3.3-60.3-3.3s-48.3,0.1-60.3,3.4
	c-6.7,1.8-11.9,7-13.7,13.7c-3.6,21.3-5,53.8,0.1,74.3c1.8,6.7,7,11.9,13.7,13.7c12,3.3,60.3,3.3,60.3,3.3s48.3,0,60.3-3.3
	c6.7-1.8,11.9-7,13.7-13.7C199.3,137.3,200.5,104.9,195.4,84.3z M100.7,154.3V88.7l56.7,32.8L100.7,154.3z"/>
</svg>
