<svg width="138" height="52" viewBox="0 0 138 52" fill="none" xmlns="http://www.w3.org/2000/svg">
<path d="M55.028 4.43314C55.028 5.53195 54.2069 6.34027 53.1457 6.34027C52.0719 6.34027 51.2634 5.51932 51.2634 4.43314C51.2634 3.30906 52.0846 2.48811 53.1457 2.48811C54.2195 2.48811 55.028 3.30906 55.028 4.43314ZM54.7501 8.70208V23.656H51.5413V8.70208H54.7501Z" fill="#010102"/>
<path d="M72.6 14.3477V23.6434H69.366V15.2444C69.366 12.9963 68.0143 11.6196 65.7657 11.6196C63.2897 11.6449 61.7485 13.3626 61.5211 15.6991V23.656H58.2871V8.70208H61.5211V11.5691C62.5949 9.48514 64.5024 8.58841 67.029 8.58841C70.5156 8.58841 72.6 10.786 72.6 14.3477Z" fill="#010102"/>
<path d="M90.3743 2.80386V23.656H87.1403V21.0921C86.0665 22.8351 84.2726 23.7949 81.8851 23.7949C77.5899 23.7949 74.7223 20.6753 74.7223 16.1285C74.7223 11.6322 77.6152 8.56315 81.8345 8.56315C84.2474 8.56315 86.0539 9.54829 87.1403 11.2912V2.80386H90.3743ZM87.1529 16.2296C87.1529 13.3373 85.2706 11.3165 82.5672 11.3165C79.8638 11.3165 77.9815 13.3626 77.9563 16.2296C77.9815 19.0713 79.8385 21.0921 82.5672 21.0921C85.2706 21.0921 87.1529 19.0713 87.1529 16.2296Z" fill="#010102"/>
<path d="M108.363 16.1412C108.363 20.6627 105.192 23.7571 100.581 23.7571C95.9452 23.7571 92.7744 20.6627 92.7744 16.1412C92.7744 11.6449 95.9452 8.58841 100.581 8.58841C105.18 8.58841 108.363 11.6449 108.363 16.1412ZM95.9958 16.2043C95.9958 19.0966 97.878 21.0669 100.581 21.0669C103.247 21.0669 105.129 19.0966 105.129 16.2043C105.129 13.3373 103.247 11.3418 100.581 11.3418C97.878 11.3418 95.9958 13.3373 95.9958 16.2043Z" fill="#010102"/>
<path d="M125.19 16.1412C125.19 20.6627 122.019 23.7571 117.408 23.7571C112.772 23.7571 109.601 20.6627 109.601 16.1412C109.601 11.6449 112.772 8.58841 117.408 8.58841C122.007 8.58841 125.19 11.6449 125.19 16.1412ZM112.823 16.2043C112.823 19.0966 114.705 21.0669 117.408 21.0669C120.074 21.0669 121.956 19.0966 121.956 16.2043C121.956 13.3373 120.074 11.3418 117.408 11.3418C114.705 11.3418 112.823 13.3373 112.823 16.2043Z" fill="#010102"/>
<path d="M135.84 8.58841V11.6828C132.833 11.5186 130.925 13.2868 130.673 15.838V23.6434H127.439V8.70208H130.673V11.6828C131.671 9.66196 133.477 8.58841 135.84 8.58841Z" fill="#010102"/>
<path d="M54.2195 34.6946V36.4628H58.123V38.8752H54.2195V50.8484H51.0107V35.0104C51.0107 31.5245 53.5626 29.87 56.1523 29.87C57.365 29.87 58.5651 30.211 59.5252 30.9056L58.2872 33.3811C57.6682 32.9264 56.9102 32.6738 56.2407 32.6738C55.1416 32.6738 54.2195 33.2927 54.2195 34.6946Z" fill="#010102"/>
<path d="M68.5451 35.7935V38.8878C65.5385 38.7236 63.6309 40.4918 63.3783 43.0431V50.8484H60.1443V35.9071H63.3783V38.8878C64.3889 36.867 66.1827 35.7935 68.5451 35.7935Z" fill="#010102"/>
<path d="M73.7495 31.6382C73.7495 32.737 72.9284 33.5453 71.8673 33.5453C70.7935 33.5453 69.985 32.7244 69.985 31.6382C69.985 30.5141 70.8061 29.6932 71.8673 29.6932C72.9284 29.6932 73.7495 30.5141 73.7495 31.6382ZM73.459 35.9071V50.8611H70.2503V35.9071H73.459Z" fill="#010102"/>
<path d="M87.9614 46.188L89.8437 47.9309C88.1636 49.977 85.9655 50.9621 83.3758 50.9621C78.7648 50.9621 75.594 47.9056 75.594 43.3715C75.594 38.9889 78.4869 35.844 83.0978 35.7808C87.1782 35.7303 89.8943 38.2311 90.1469 42.2979L79.2701 45.5565C80.0028 47.2994 81.544 48.3603 83.5653 48.3603C85.2328 48.3856 86.7487 47.6278 87.9614 46.188ZM78.828 43.2073V43.2325L87.0393 40.7823C86.3318 39.1025 85.0686 38.3952 83.3 38.3952C80.5713 38.4079 78.828 40.1003 78.828 43.2073Z" fill="#010102"/>
<path d="M106.481 41.5527V50.8484H103.247V42.4495C103.247 40.2013 101.895 38.8247 99.6468 38.8247C97.1708 38.8499 95.6296 40.5676 95.4022 42.9042V50.8611H92.1682V35.9071H95.4022V38.7741C96.476 36.6902 98.3835 35.7935 100.91 35.7935C104.397 35.7935 106.481 37.9911 106.481 41.5527Z" fill="#010102"/>
<path d="M124.255 30.0089V50.8611H121.021V48.3098C119.948 50.0528 118.154 51.0126 115.766 51.0126C111.471 51.0126 108.603 47.893 108.603 43.3462C108.603 38.8499 111.496 35.7808 115.716 35.7808C118.128 35.7808 119.935 36.766 121.021 38.5089V30.0215H124.255V30.0089ZM121.034 43.4346C121.034 40.5423 119.152 38.5215 116.448 38.5215C113.745 38.5215 111.863 40.5676 111.837 43.4346C111.863 46.2764 113.72 48.2972 116.448 48.2972C119.152 48.2972 121.034 46.2764 121.034 43.4346Z" fill="#010102"/>
<path d="M132.264 38.3574C131.001 38.3574 130.066 38.7741 130.066 39.8477C130.066 42.601 138.025 41.1107 137.987 46.529C137.987 49.5854 135.258 50.9621 132.252 50.9621C130.054 50.9621 127.729 50.2296 126.239 48.8782L127.388 46.5795C128.677 47.7288 130.761 48.4361 132.391 48.4361C133.768 48.4361 134.842 47.9562 134.842 46.8321C134.842 43.7756 126.971 45.4807 126.997 40.0877C126.997 37.0565 129.637 35.7556 132.504 35.7556C134.387 35.7556 136.383 36.3239 137.734 37.2712L136.56 39.6582C135.246 38.8626 133.591 38.3574 132.264 38.3574Z" fill="#010102"/>
<path d="M39.831 50.8484H0V19.9049L19.9218 0L39.8437 19.9175V50.8484H39.831ZM1.26327 49.5854H38.5677V20.4354L19.9218 1.78083L1.26327 20.4354V49.5854Z" fill="#010102"/>
<path d="M19.9091 45.6701C19.8206 45.6701 19.7322 45.6701 19.6312 45.6701C11.862 45.5186 5.54565 39.0646 5.54565 31.2972V31.0319C5.54565 26.662 7.25107 22.5572 10.3335 19.4755L19.9217 9.88931L29.51 19.4755C32.5923 22.5572 34.2978 26.662 34.2978 31.0319C34.2978 34.9599 32.6808 38.7994 29.8637 41.5654C27.1476 44.2177 23.6231 45.6701 19.9091 45.6701ZM19.9217 11.6701L11.2304 20.3596C8.37539 23.214 6.80893 26.9903 6.80893 31.0193V31.2845C6.80893 38.37 12.5695 44.2556 19.6564 44.3819C23.181 44.445 26.4276 43.1189 28.9667 40.6308C31.5438 38.1048 33.0219 34.5936 33.0219 31.0067C33.0219 26.9777 31.4554 23.1887 28.6004 20.347L19.9217 11.6701Z" fill="#010102"/>
<path d="M20.5533 10.786H19.29V45.0386H20.5533V10.786Z" fill="#010102"/>
<path d="M19.9219 38.5089L6.93542 25.5379L7.83235 24.6412L19.9219 36.7281L31.9988 24.6412L32.8957 25.5379L19.9219 38.5089Z" fill="#010102"/>
<path d="M19.9219 27.1545L11.7358 18.9703L12.6201 18.0735L19.9219 25.3611L27.2109 18.0735L28.1079 18.9703L19.9219 27.1545Z" fill="#010102"/>
</svg>
